<svg xmlns="http://www.w3.org/2000/svg" xmlns:xlink="http://www.w3.org/1999/xlink" width="4000" zoomAndPan="magnify" viewBox="0 0 3000 2354.249896" height="3139" preserveAspectRatio="xMidYMid meet" version="1.0"><path fill="#ec5b82" d="M 1497.140625 21.132812 C 1494.09375 28.414062 1491.605469 36.125 1491.605469 38.253906 C 1491.605469 46.949219 1464.242188 120.753906 1439.113281 179.851562 C 1350.605469 387.984375 1315.539062 512.246094 1294.148438 693.539062 C 1284.453125 775.6875 1284.445312 1030.351562 1294.132812 1115.628906 C 1314.351562 1293.640625 1357.183594 1447.867188 1429.636719 1603.53125 C 1468.785156 1687.644531 1488.648438 1713.636719 1506.484375 1704.089844 C 1518.269531 1697.785156 1535.164062 1671 1560.082031 1619.105469 C 1615.941406 1502.792969 1653.308594 1382.101562 1681.082031 1228.3125 C 1746.949219 863.632812 1710.371094 491.539062 1578.144531 181.027344 C 1551.292969 117.976562 1533.101562 70.304688 1522.644531 35.578125 C 1513.203125 4.222656 1505.925781 0.101562 1497.140625 21.132812 M 1387.898438 104.335938 C 1315.6875 190.492188 1282.925781 232.960938 1233.179688 304.902344 C 1176.226562 387.261719 1152.339844 426.90625 1121.011719 491.089844 C 1017.425781 703.277344 1015.433594 997.058594 1115.90625 1242.671875 C 1174.726562 1386.453125 1286.300781 1557.070312 1376.6875 1641.4375 C 1419.933594 1681.808594 1425.988281 1682.921875 1410.308594 1647.628906 L 1375.710938 1569.851562 C 1310.519531 1423.332031 1263.386719 1241.378906 1242.710938 1056.421875 C 1236.003906 996.402344 1235.929688 766.808594 1242.597656 708.816406 C 1254.339844 606.761719 1283.015625 468.621094 1308.808594 389.863281 C 1336.539062 305.179688 1396.859375 158.621094 1435.820312 81.246094 C 1450.363281 52.371094 1452.679688 42.261719 1444.753906 42.261719 C 1442.097656 42.261719 1416.511719 70.195312 1387.898438 104.335938 M 1566.382812 54.675781 C 1567.871094 59.40625 1577.660156 79.601562 1588.128906 99.558594 C 1635.078125 189.058594 1683.570312 315.417969 1709.726562 416.417969 C 1722.957031 467.496094 1744.257812 586.609375 1753.816406 662.980469 C 1763.417969 739.691406 1763.550781 975.167969 1754.035156 1054.902344 C 1730.558594 1251.632812 1683.09375 1430.214844 1611.132812 1592.574219 C 1586.949219 1647.144531 1576.238281 1675.445312 1578.800781 1678.007812 C 1584.054688 1683.261719 1644.234375 1624.773438 1682.578125 1577.148438 C 1724.707031 1524.824219 1741.652344 1500.347656 1782.773438 1432.433594 C 1880.113281 1271.65625 1935.140625 1120.007812 1955.953125 955.195312 C 1961.082031 914.578125 1962.011719 886.1875 1960.335938 821.503906 C 1956.503906 673.484375 1932.953125 576.785156 1869.507812 448.574219 C 1824.550781 357.726562 1733.5 227.355469 1644.429688 126.296875 C 1576.679688 49.429688 1559.84375 33.976562 1566.382812 54.675781 M 2259.386719 287.226562 C 2130.527344 351.203125 2065.105469 383.132812 1989.132812 419.121094 C 1978.101562 424.34375 1969.082031 430.914062 1969.082031 433.710938 C 1969.082031 436.515625 1974.308594 450.460938 1980.699219 464.707031 C 2009.082031 527.964844 2031.695312 610.753906 2041.632812 687.808594 C 2048.648438 742.1875 2050.800781 857.035156 2045.863281 913.179688 C 2039.652344 983.75 2021.367188 1084.011719 2003.167969 1147.277344 C 1965.011719 1279.921875 1891.628906 1427.328125 1799.296875 1556.777344 C 1770.144531 1597.652344 1762.121094 1612.203125 1768.722656 1612.203125 C 1775.425781 1612.203125 1815.980469 1581.90625 1850.667969 1550.988281 C 2122.707031 1308.507812 2325.925781 944.050781 2396.789062 571.566406 C 2415.660156 472.351562 2428.863281 314.402344 2423.941406 246.621094 C 2422 219.78125 2420.800781 215.949219 2414.085938 215.136719 C 2409.886719 214.628906 2340.269531 247.070312 2259.386719 287.226562 M 571.15625 221.714844 C 564.257812 225.980469 568.246094 395.355469 576.554688 450.859375 C 611.480469 684.257812 699.382812 937.277344 814.128906 1134.726562 C 910.53125 1300.613281 1011.445312 1430.527344 1124.902344 1534.832031 C 1183.15625 1588.386719 1221.578125 1616.523438 1223.503906 1607.039062 C 1225.097656 1599.195312 1222.457031 1594.710938 1186.179688 1543.601562 C 1086.839844 1403.648438 1009.988281 1232.078125 979.074219 1081.25 C 963.132812 1003.445312 957.453125 956.074219 954.597656 876.890625 C 949.089844 724.367188 971.273438 591.5625 1022.488281 470.519531 C 1034.996094 440.945312 1036.765625 433.84375 1032.574219 429.9375 C 1028.039062 425.714844 1013.0625 418.589844 928.183594 380.277344 C 915.578125 374.585938 870.027344 353.140625 826.957031 332.617188 C 743.15625 292.6875 732.480469 287.707031 658.886719 254.207031 C 591.449219 223.511719 576.941406 218.140625 571.15625 221.714844 M 2472.242188 289.167969 C 2471.039062 291.105469 2468.933594 309.832031 2467.558594 330.777344 C 2459.953125 446.660156 2434.296875 595.957031 2403.929688 701.042969 C 2380.472656 782.207031 2344.875 884.289062 2323.289062 932.277344 C 2318.09375 943.832031 2305.589844 971.925781 2295.507812 994.707031 C 2254.734375 1086.867188 2176.496094 1219.492188 2109.253906 1310.4375 C 2029.199219 1418.707031 1929.902344 1525.894531 1856.394531 1583.378906 C 1815.179688 1615.609375 1789.550781 1638.675781 1789.550781 1643.535156 C 1789.550781 1654.042969 1859.738281 1630.707031 1926.015625 1598.15625 C 2198.78125 1464.203125 2452.9375 1135.148438 2515.566406 834.871094 C 2529.40625 768.511719 2534.257812 718.929688 2534.335938 643.121094 C 2534.4375 543.628906 2526.617188 483.929688 2497.40625 361.214844 C 2483.738281 303.816406 2476.320312 282.566406 2472.242188 289.167969 M 509.636719 300.429688 C 501.203125 321.84375 472.15625 475.164062 465.78125 531.925781 C 460.851562 575.785156 459.816406 608.582031 461.367188 671.929688 C 463.4375 756.761719 467.921875 793.289062 485.117188 865.429688 C 534.402344 1072.183594 674.449219 1293.238281 857.515625 1453.230469 C 905.035156 1494.757812 966.34375 1541.792969 995.289062 1558.925781 C 1069.007812 1602.5625 1135.527344 1633.691406 1177.734375 1644.316406 C 1206.863281 1651.644531 1209.003906 1651.738281 1208.710938 1645.625 C 1208.484375 1640.878906 1201.910156 1635.144531 1132.542969 1579.175781 C 1039.425781 1504.042969 922.605469 1367.292969 826.304688 1220.671875 C 732.777344 1078.277344 663.496094 933.785156 605.648438 760.464844 C 558.746094 619.96875 534.28125 499.132812 524.789062 361.171875 C 522.332031 325.480469 518.90625 294.710938 517.171875 292.792969 C 515.390625 290.816406 512.117188 294.132812 509.636719 300.433594 M 48.1875 1006.195312 C 42.925781 1012.539062 53.851562 1028.519531 100.820312 1083.160156 C 191.242188 1188.339844 308.988281 1295.765625 410.601562 1365.78125 C 429.191406 1378.59375 447.773438 1391.425781 466.34375 1404.273438 C 593.539062 1492.382812 818.636719 1613.464844 922.453125 1649.628906 C 999.589844 1676.492188 1106.953125 1704.003906 1112.609375 1698.347656 C 1116.875 1694.078125 1107.523438 1689.023438 1070.964844 1675.816406 C 1022.039062 1658.152344 979.460938 1638.234375 949.191406 1618.863281 C 816.511719 1533.945312 696.804688 1424.09375 606.242188 1304.148438 C 546.304688 1224.761719 475.328125 1102.75 448.796875 1033.503906 C 443.964844 1020.898438 437.367188 1008.4375 434.125 1005.808594 C 425.148438 998.527344 54.242188 998.902344 48.1875 1006.195312 M 2554.425781 1005.773438 C 2552.285156 1008.421875 2544.195312 1026.054688 2536.453125 1044.960938 C 2456.09375 1241.21875 2289.179688 1446.734375 2100.546875 1581.671875 C 2043.195312 1622.699219 1998.753906 1647.546875 1954.410156 1663.386719 C 1894.382812 1684.828125 1875.019531 1696.238281 1898.636719 1696.238281 C 1914.511719 1696.238281 1996.902344 1674.277344 2063.613281 1652.269531 C 2110.929688 1636.65625 2151.324219 1619.171875 2233.59375 1578.679688 C 2393.589844 1499.941406 2468.234375 1456.546875 2585.691406 1373.992188 C 2665.109375 1318.171875 2802.027344 1194.890625 2870.128906 1117.875 C 2921.769531 1059.476562 2958.960938 1012.238281 2957.277344 1007.179688 C 2955.097656 1000.648438 2559.699219 999.269531 2554.425781 1005.773438 M 9.519531 1060.46875 C 9.519531 1077.628906 27.570312 1150.34375 44.070312 1199.664062 C 100.1875 1367.386719 214.136719 1516.878906 359.03125 1612.867188 C 434.089844 1662.585938 548.472656 1709.542969 635.96875 1726.554688 C 740.792969 1746.933594 862.628906 1757.300781 996.941406 1757.269531 C 1079.660156 1757.25 1098.164062 1755.8125 1098.164062 1749.40625 C 1098.164062 1743.730469 1084.523438 1738.546875 1038.246094 1726.632812 C 933.75 1699.730469 845.398438 1663.027344 676.078125 1576.179688 C 503.421875 1487.625 405.410156 1425.6875 280.726562 1326.335938 C 210.609375 1270.464844 99.289062 1159.1875 51.789062 1097.484375 C 31.976562 1071.746094 14.363281 1050.691406 12.644531 1050.691406 C 10.925781 1050.691406 9.519531 1055.089844 9.519531 1060.46875 M 2953.5625 1093.308594 C 2914.773438 1145.175781 2821.914062 1240.277344 2755.960938 1295.675781 C 2616.835938 1412.53125 2503.035156 1484.761719 2291.5 1590.472656 C 2132.878906 1669.738281 2085.566406 1689.46875 1977.957031 1721.214844 C 1900.867188 1743.957031 1893.566406 1747.304688 1901.140625 1756.425781 C 1905.203125 1761.320312 1918.5625 1761.761719 1995.726562 1759.550781 C 2152.402344 1755.058594 2272.996094 1743.273438 2373.734375 1722.609375 C 2483.253906 1700.144531 2613.394531 1638.007812 2697.113281 1568.214844 C 2847.007812 1443.25 2941.332031 1288.476562 2985.304688 1095.335938 C 2997.65625 1041.105469 2992.828125 1040.796875 2953.5625 1093.308594 M 799.363281 1809.878906 C 775.976562 1836.550781 733.824219 1966.628906 724.167969 2041.929688 C 718.207031 2088.4375 717.230469 2164.8125 722.53125 2170.121094 C 727.992188 2175.589844 813.152344 2148.105469 869.492188 2122.699219 C 978.734375 2073.4375 1071.175781 1983.800781 1104.449219 1894.867188 C 1120.816406 1851.121094 1127.5 1816.652344 1121.105469 1808.949219 C 1116.992188 1803.992188 1094.726562 1803.191406 960.777344 1803.191406 C 817.410156 1803.191406 804.765625 1803.714844 799.363281 1809.878906 M 1875.667969 1809.296875 C 1869.625 1815.339844 1869.671875 1819.226562 1876.210938 1854.757812 C 1880.34375 1877.226562 1905.492188 1934.152344 1923.1875 1961.078125 C 1981.292969 2049.519531 2098.417969 2123.394531 2246.992188 2165.316406 C 2273.898438 2172.90625 2274.8125 2172.929688 2278.503906 2166.035156 C 2280.59375 2162.132812 2282.257812 2147.21875 2282.207031 2132.902344 C 2281.855469 2040.261719 2256.28125 1935.25 2209.582031 1834.707031 L 2194.945312 1803.191406 L 2038.355469 1803.191406 C 1899.980469 1803.191406 1881.0625 1803.902344 1875.667969 1809.296875 M 1243.316406 1814.40625 L 1210.847656 1816.5625 L 1211.800781 1845.210938 C 1213.925781 1909.394531 1241.671875 2013.757812 1274.4375 2080.828125 C 1292.972656 2118.765625 1324.542969 2167.984375 1353.617188 2204.273438 C 1388.882812 2248.285156 1492.683594 2349.425781 1502.589844 2349.425781 C 1515.296875 2349.425781 1615.816406 2253.433594 1652.59375 2206.183594 C 1730.636719 2105.914062 1775.738281 1996.015625 1790.746094 1869.546875 C 1797.917969 1809.089844 1799.242188 1810.832031 1746.214844 1810.832031 C 1715.910156 1810.832031 1701.476562 1812.289062 1698.839844 1815.605469 C 1696.757812 1818.234375 1693.875 1835.851562 1692.433594 1854.757812 C 1684.460938 1959.523438 1664.878906 2033.398438 1622.578125 2118.328125 C 1604.695312 2154.226562 1551.601562 2232.839844 1524.214844 2263.964844 C 1509.0625 2281.179688 1507.867188 2281.789062 1499.96875 2276.261719 C 1495.40625 2273.0625 1478.53125 2254.265625 1462.46875 2234.492188 C 1363.933594 2113.179688 1323.957031 2008.242188 1314.308594 1845.609375 C 1313.257812 1827.933594 1310.742188 1816.15625 1307.578125 1814.152344 C 1302.320312 1810.820312 1297.117188 1810.839844 1243.316406 1814.40625 M 1346.691406 1814.421875 C 1341.980469 1817.40625 1341.875 1824.566406 1345.957031 1864.976562 C 1354.722656 1951.75 1375.570312 2033.523438 1402.667969 2087.449219 C 1435.382812 2152.539062 1492.265625 2231.011719 1506.746094 2231.011719 C 1514.804688 2231.011719 1536.984375 2203.988281 1565.433594 2159.515625 C 1619.273438 2075.351562 1648.714844 1984.777344 1660.296875 1867.664062 C 1662.714844 1843.242188 1663.613281 1820.46875 1662.300781 1817.050781 C 1660.152344 1811.445312 1644.691406 1810.839844 1506.046875 1810.890625 C 1420.363281 1810.921875 1349.75 1812.488281 1346.691406 1814.421875 M 1126.820312 1958.144531 C 1077.4375 2035.335938 997.894531 2100.734375 894.761719 2148.933594 C 827.714844 2180.265625 829.511719 2184.890625 902.058594 2167.757812 C 990.019531 2146.988281 1151.152344 2099.496094 1175.515625 2087.160156 C 1187.742188 2080.96875 1188.382812 2074.972656 1179.535156 2049.292969 C 1175.96875 2038.941406 1167.757812 2009.972656 1161.296875 1984.917969 C 1154.832031 1959.867188 1147.554688 1938.707031 1145.125 1937.898438 C 1142.695312 1937.089844 1134.460938 1946.199219 1126.820312 1958.144531 M 1849.207031 1964.578125 C 1848.535156 1967.207031 1840.136719 1993.207031 1830.535156 2022.363281 C 1820.9375 2051.523438 1813.976562 2077.699219 1815.066406 2080.542969 C 1817.15625 2085.988281 1910.128906 2116.601562 2003.457031 2142.582031 C 2165.953125 2187.808594 2184.664062 2188.367188 2094.820312 2145.316406 C 2019.441406 2109.195312 1968.101562 2073.988281 1919.402344 2025 C 1897.328125 2002.796875 1874.707031 1979.046875 1869.132812 1972.21875 C 1858.546875 1959.253906 1851.277344 1956.46875 1849.207031 1964.578125 " fill-opacity="1" fill-rule="evenodd"/></svg>